<?xml version="1.0" encoding="utf-8"?>
<!-- Generator: Adobe Illustrator 22.1.0, SVG Export Plug-In . SVG Version: 6.00 Build 0)  -->
<svg version="1.1" id="Layer_1" xmlns="http://www.w3.org/2000/svg" xmlns:xlink="http://www.w3.org/1999/xlink" x="0px" y="0px"
	 viewBox="0 0 384 512" style="enable-background:new 0 0 384 512;" xml:space="preserve">
<style type="text/css">
	.st0{stroke:#000000;stroke-width:3;stroke-miterlimit:10;}
</style>
<path d="M369.9,97.9L286,14c-9-9-21.2-14.1-33.9-14.1H48C21.5,0,0,21.5,0,48v416c0,26.5,21.5,48,48,48h288c26.5,0,48-21.5,48-48
	V131.9C384,119.2,378.9,106.9,369.9,97.9z M347.3,120.6c2.1,2.1,3.5,4.6,4.2,7.4H256V32.5c2.8,0.7,5.3,2.1,7.4,4.2L347.3,120.6z
	 M336,480H48c-8.8,0-16-7.2-16-16V48c0-8.8,7.2-16,16-16h176v104c0,13.3,10.7,24,24,24h104v304C352,472.8,344.8,480,336,480z"/>
<path class="st0" d="M95.6,446.5c-0.2,2.3,1.7,4.3,4,4.3h8.1c2.1,0,3.9-1.6,4-3.7c0.2-2.8,0.7-7.1,1.8-12.4h156.9
	c1.1,5.4,1.7,9.7,1.9,12.4c0.2,2.1,1.9,3.6,4,3.6h8.1c2.4,0,4.2-2,4-4.3c-1.2-15.8-9.3-71.3-66.4-114.4c-4.7,3.2-9.6,6.2-14.9,9.2
	c13.1,9.2,23.4,19.2,31.7,29.2h-94.2c12.1-14.5,28.6-28.9,51.2-41.2c80.9-44.1,91.2-113.3,92.5-131.3c0.2-2.3-1.7-4.3-4-4.3h-8.1
	c-2.1,0-3.9,1.6-4,3.7c-0.2,2.8-0.7,7.1-1.8,12.4H113.6c-1.1-5.4-1.6-9.7-1.9-12.4c-0.2-2.1-1.9-3.6-4-3.6l-8.1-0.1
	c-2.3,0-4.2,2-4,4.3c1.3,17.1,10.9,80.1,80.8,124.1C106.3,366.3,96.9,429.5,95.6,446.5z M266.3,225.9c-3.2,9.6-8,20.7-15.3,32.1
	H133.3c-7.2-11.5-12.1-22.5-15.3-32.1H266.3z M192,313c-20.4-11.7-35.7-25.2-47.1-38.8h94.4C227.9,287.7,212.5,301.2,192,313
	L192,313z M117.7,418.7c3.2-9.6,8-20.6,15.3-32.1h117.7c7.3,11.5,12.1,22.5,15.4,32.1H117.7z"/>
</svg>
